<svg width="512" height="512" viewBox="0 0 512 512" fill="none" xmlns="http://www.w3.org/2000/svg">
<rect width="512" height="512" fill="black"/>
<path d="M166.1 303C161.633 295.933 158.267 288.8 156 281.6C153.733 274.4 152.6 267.2 152.6 260C152.6 245.467 157.1 231.133 166.1 217H179.5C171.433 231.333 167.4 245.667 167.4 260C167.4 267.133 168.4 274.3 170.4 281.5C172.467 288.633 175.5 295.8 179.5 303H166.1ZM225.961 293.6C220.228 293.6 215.361 292.167 211.361 289.3C207.428 286.433 204.394 282.267 202.261 276.8C200.194 271.267 199.161 264.533 199.161 256.6C199.161 248.667 200.194 241.933 202.261 236.4C204.394 230.867 207.428 226.667 211.361 223.8C215.361 220.867 220.228 219.4 225.961 219.4C231.694 219.4 236.561 220.867 240.561 223.8C244.561 226.667 247.594 230.867 249.661 236.4C251.728 241.933 252.761 248.667 252.761 256.6C252.761 264.533 251.728 271.267 249.661 276.8C247.594 282.267 244.561 286.433 240.561 289.3C236.561 292.167 231.694 293.6 225.961 293.6ZM225.961 281C228.628 281 230.861 280.167 232.661 278.5C234.461 276.767 235.828 274.1 236.761 270.5C237.694 266.9 238.161 262.267 238.161 256.6C238.161 250.933 237.694 246.3 236.761 242.7C235.828 239.033 234.461 236.333 232.661 234.6C230.861 232.867 228.628 232 225.961 232C223.361 232 221.128 232.867 219.261 234.6C217.461 236.333 216.094 239.033 215.161 242.7C214.228 246.3 213.761 250.933 213.761 256.6C213.761 262.267 214.228 266.9 215.161 270.5C216.094 274.1 217.461 276.767 219.261 278.5C221.128 280.167 223.361 281 225.961 281ZM263.722 292V221H286.622C291.555 221 295.889 221.967 299.622 223.9C303.355 225.767 306.255 228.433 308.322 231.9C310.455 235.3 311.522 239.267 311.522 243.8C311.522 248.4 310.455 252.4 308.322 255.8C306.255 259.2 303.355 261.867 299.622 263.8C295.889 265.667 291.555 266.6 286.622 266.6H277.922V292H263.722ZM277.922 253.7H285.122C289.122 253.7 292.089 252.867 294.022 251.2C295.955 249.533 296.922 247.067 296.922 243.8C296.922 240.533 295.955 238.067 294.022 236.4C292.089 234.667 289.122 233.8 285.122 233.8H277.922V253.7ZM345.783 303H332.383C336.449 295.8 339.483 288.633 341.483 281.5C343.483 274.3 344.483 267.133 344.483 260C344.483 245.667 340.449 231.333 332.383 217H345.783C354.783 231.133 359.283 245.467 359.283 260C359.283 267.2 358.149 274.4 355.883 281.6C353.616 288.8 350.249 295.933 345.783 303Z" fill="white"/>
</svg>
