<svg width="512" height="512" viewBox="0 0 512 512" fill="none" xmlns="http://www.w3.org/2000/svg">
<rect width="512" height="512" fill="black"/>
<path d="M286.386 383.198V128.734H368.46C386.141 128.734 401.672 132.199 415.052 139.128C428.432 145.818 438.826 155.375 446.233 167.8C453.879 179.986 457.702 194.202 457.702 210.45C457.702 226.936 453.879 241.272 446.233 253.458C438.826 265.643 428.432 275.201 415.052 282.13C401.672 288.82 386.141 292.165 368.46 292.165H337.279V383.198H286.386ZM337.279 245.931H363.084C377.42 245.931 388.053 242.945 394.982 236.971C401.911 230.998 405.375 222.157 405.375 210.45C405.375 198.742 401.911 189.901 394.982 183.928C388.053 177.716 377.42 174.61 363.084 174.61H337.279V245.931Z" fill="white"/>
<path d="M151.051 388.933C130.503 388.933 113.061 383.796 98.7248 373.522C84.6277 363.247 73.7563 348.314 66.1104 328.722C58.7035 308.89 55 284.758 55 256.325C55 227.892 58.7035 203.759 66.1104 183.928C73.7563 164.097 84.6277 149.044 98.7248 138.77C113.061 128.257 130.503 123 151.051 123C171.599 123 189.042 128.257 203.378 138.77C217.714 149.044 228.585 164.097 235.992 183.928C243.399 203.759 247.102 227.892 247.102 256.325C247.102 284.758 243.399 308.89 235.992 328.722C228.585 348.314 217.714 363.247 203.378 373.522C189.042 383.796 171.599 388.933 151.051 388.933ZM151.051 343.774C160.609 343.774 168.613 340.788 175.064 334.814C181.515 328.602 186.413 319.045 189.758 306.142C193.103 293.24 194.776 276.634 194.776 256.325C194.776 236.015 193.103 219.41 189.758 206.507C186.413 193.366 181.515 183.689 175.064 177.477C168.613 171.265 160.609 168.158 151.051 168.158C141.733 168.158 133.729 171.265 127.038 177.477C120.587 183.689 115.689 193.366 112.344 206.507C108.999 219.41 107.326 236.015 107.326 256.325C107.326 276.634 108.999 293.24 112.344 306.142C115.689 319.045 120.587 328.602 127.038 334.814C133.729 340.788 141.733 343.774 151.051 343.774Z" fill="white"/>
</svg>
