<svg width="512" height="512" viewBox="0 0 512 512" fill="none" xmlns="http://www.w3.org/2000/svg">
<rect width="512" height="512" fill="black"/>
<path d="M85.19 344.9C76.7033 331.473 70.3067 317.92 66 304.24C61.6933 290.56 59.54 276.88 59.54 263.2C59.54 235.587 68.09 208.353 85.19 181.5H110.65C95.3233 208.733 87.66 235.967 87.66 263.2C87.66 276.753 89.56 290.37 93.36 304.05C97.2867 317.603 103.05 331.22 110.65 344.9H85.19ZM198.926 327.04C188.032 327.04 178.786 324.317 171.186 318.87C163.712 313.423 157.949 305.507 153.896 295.12C149.969 284.607 148.006 271.813 148.006 256.74C148.006 241.667 149.969 228.873 153.896 218.36C157.949 207.847 163.712 199.867 171.186 194.42C178.786 188.847 188.032 186.06 198.926 186.06C209.819 186.06 219.066 188.847 226.666 194.42C234.266 199.867 240.029 207.847 243.956 218.36C247.882 228.873 249.846 241.667 249.846 256.74C249.846 271.813 247.882 284.607 243.956 295.12C240.029 305.507 234.266 313.423 226.666 318.87C219.066 324.317 209.819 327.04 198.926 327.04ZM198.926 303.1C203.992 303.1 208.236 301.517 211.656 298.35C215.076 295.057 217.672 289.99 219.446 283.15C221.219 276.31 222.106 267.507 222.106 256.74C222.106 245.973 221.219 237.17 219.446 230.33C217.672 223.363 215.076 218.233 211.656 214.94C208.236 211.647 203.992 210 198.926 210C193.986 210 189.742 211.647 186.196 214.94C182.776 218.233 180.179 223.363 178.406 230.33C176.632 237.17 175.746 245.973 175.746 256.74C175.746 267.507 176.632 276.31 178.406 283.15C180.179 289.99 182.776 295.057 186.196 298.35C189.742 301.517 193.986 303.1 198.926 303.1ZM270.672 324V189.1H314.182C323.555 189.1 331.788 190.937 338.882 194.61C345.975 198.157 351.485 203.223 355.412 209.81C359.465 216.27 361.492 223.807 361.492 232.42C361.492 241.16 359.465 248.76 355.412 255.22C351.485 261.68 345.975 266.747 338.882 270.42C331.788 273.967 323.555 275.74 314.182 275.74H297.652V324H270.672ZM297.652 251.23H311.332C318.932 251.23 324.568 249.647 328.242 246.48C331.915 243.313 333.752 238.627 333.752 232.42C333.752 226.213 331.915 221.527 328.242 218.36C324.568 215.067 318.932 213.42 311.332 213.42H297.652V251.23ZM426.587 344.9H401.127C408.854 331.22 414.617 317.603 418.417 304.05C422.217 290.37 424.117 276.753 424.117 263.2C424.117 235.967 416.454 208.733 401.127 181.5H426.587C443.687 208.353 452.237 235.587 452.237 263.2C452.237 276.88 450.084 290.56 445.777 304.24C441.471 317.92 435.074 331.473 426.587 344.9Z" fill="white"/>
</svg>
