<svg width="140" height="47" viewBox="0 0 140 47" fill="none" xmlns="http://www.w3.org/2000/svg">
<path d="M107.469 45.875C105.948 45.875 104.688 45.4479 103.688 44.5938C102.688 43.7188 102.188 42.2708 102.188 40.25C102.188 37.6875 102.76 35.2917 103.906 33.0625C105.052 30.8333 106.5 28.9271 108.25 27.3438C109.979 25.7604 111.802 24.5417 113.719 23.6875C115.656 22.8125 117.385 22.375 118.906 22.375C120.135 22.375 121.156 22.5729 121.969 22.9688C122.427 23.2188 122.812 23.5 123.125 23.8125L123.375 23.2812L123.938 21.9688L124.281 21.1875C124.323 21.0208 124.594 20.3542 125.094 19.1875C125.594 18.0208 126.26 16.4479 127.094 14.4688C127.865 12.6354 128.5 11.0833 129 9.8125C129.5 8.52083 129.76 7.83333 129.781 7.75C130.073 6.70833 130.562 5.78125 131.25 4.96875C131.938 4.15625 132.865 3.75 134.031 3.75C134.823 3.75 135.479 3.92708 136 4.28125C136.521 4.61458 136.781 5.27083 136.781 6.25C136.781 7 136.615 7.80208 136.281 8.65625C135.948 9.51042 135.656 10.2708 135.406 10.9375C134.406 12.9375 133.323 15.1562 132.156 17.5938C131.01 20.0312 129.865 22.5312 128.719 25.0938C127.573 27.6562 126.49 30.125 125.469 32.5C124.448 34.8542 123.562 36.9375 122.812 38.75C122.792 38.7708 122.781 38.8229 122.781 38.9062C122.781 38.9896 122.771 39.0417 122.75 39.0625C122.75 39.4375 122.844 39.8333 123.031 40.25C123.219 40.6458 123.521 40.8438 123.938 40.8438C124.062 40.8438 124.188 40.8229 124.312 40.7812C125.854 40.3229 127.438 39.5208 129.062 38.375C130.688 37.2292 132.188 36 133.562 34.6875C134.958 33.3542 136.073 32.1875 136.906 31.1875C137.198 30.8333 137.521 30.6562 137.875 30.6562C138.188 30.6562 138.458 30.8021 138.688 31.0938C138.938 31.3854 139.062 31.7812 139.062 32.2812C139.062 32.6771 138.948 33.1458 138.719 33.6875C138.51 34.2292 138.156 34.8125 137.656 35.4375C136.031 37.2292 134.344 38.9271 132.594 40.5312C130.844 42.1146 129.094 43.4062 127.344 44.4062C125.594 45.3854 123.885 45.875 122.219 45.875C120.698 45.875 119.5 45.4479 118.625 44.5938C117.75 43.7188 117.312 42.4167 117.312 40.6875V40.3438C117.312 40.1979 117.323 40.0938 117.344 40.0312C116.385 41.7604 114.948 43.1667 113.031 44.25C111.135 45.3333 109.281 45.875 107.469 45.875ZM109.781 40.3438C111.052 40.3438 112.26 39.9583 113.406 39.1875C114.552 38.4167 115.604 37.4271 116.562 36.2188C117.521 35.0104 118.354 33.75 119.062 32.4375C119.792 31.125 120.385 29.9271 120.844 28.8438L121.281 27.875L121.875 26.5312C120.646 26.5521 119.333 26.8229 117.938 27.3438C115.542 28.1562 113.448 29.5938 111.656 31.6562C109.885 33.6979 108.906 36.1771 108.719 39.0938C108.719 39.9271 109.073 40.3438 109.781 40.3438Z" fill="#F6339A"/>
<path d="M99.9062 20.2812C98.6146 20.2812 97.7083 20.0833 97.1875 19.6875C96.6667 19.2708 96.375 18.7292 96.3125 18.0625C96.3125 17.0833 96.6667 16.125 97.375 15.1875C98.1042 14.2292 99.1771 13.75 100.594 13.75C101.802 13.75 102.646 13.9896 103.125 14.4688C103.604 14.9271 103.844 15.5104 103.844 16.2188C103.844 17.0104 103.531 17.8854 102.906 18.8438C102.302 19.8021 101.302 20.2812 99.9062 20.2812ZM92.25 45.875C90.5625 45.875 89.2292 45.4479 88.25 44.5938C87.2917 43.7188 86.8125 42.3646 86.8125 40.5312C86.8125 39.2604 87.0417 38 87.5 36.75C87.9792 35.4792 88.5 34.2917 89.0625 33.1875C89.6458 32.0625 90.1042 31.0833 90.4375 30.25C90.5417 29.9792 90.7188 29.5625 90.9688 29C91.2396 28.4375 91.5208 27.8646 91.8125 27.2812L92.875 25.0938C93.2292 24.5104 93.6354 24.0938 94.0938 23.8438C94.5521 23.5938 95.0208 23.4688 95.5 23.4688C96.2917 23.4688 96.9688 23.7292 97.5312 24.25C98.1146 24.75 98.4062 25.3958 98.4062 26.1875C98.3854 26.375 98.3542 26.5625 98.3125 26.75C98.2917 26.9375 98.2292 27.125 98.125 27.3125C97.6667 28.1458 97.2708 28.9271 96.9375 29.6562C96.6042 30.3646 96.2604 31.0833 95.9062 31.8125C95.6146 32.4167 95.25 33.1562 94.8125 34.0312C94.375 34.9062 93.9896 35.7917 93.6562 36.6875C93.3229 37.5625 93.1562 38.3438 93.1562 39.0312C93.1562 39.5938 93.2917 39.9688 93.5625 40.1562C93.8542 40.3229 94.2604 40.4062 94.7812 40.4062C95.6146 40.4062 96.5312 40.1458 97.5312 39.625C98.5521 39.1042 99.5208 38.4583 100.438 37.6875C101.396 36.9167 102.281 36.1354 103.094 35.3438C103.906 34.5312 104.51 33.875 104.906 33.375C105.302 32.9792 105.719 32.7812 106.156 32.7812C106.531 32.7812 106.833 32.9479 107.062 33.2812C107.312 33.6146 107.438 34.0417 107.438 34.5625C107.438 35.0417 107.312 35.5521 107.062 36.0938C106.833 36.6354 106.448 37.1458 105.906 37.625C104.531 39.0208 103.094 40.3542 101.594 41.625C100.094 42.875 98.5521 43.8958 96.9688 44.6875C95.4062 45.4792 93.8333 45.875 92.25 45.875Z" fill="#F6339A"/>
<path d="M73.0938 45.875C70.9688 45.875 69.3333 45.2604 68.1875 44.0312C67.0417 42.7812 66.4688 41.2917 66.4688 39.5625C66.4688 38.1458 66.9375 36.4688 67.875 34.5312C68.8333 32.5729 70.0938 30.6771 71.6562 28.8438C73.2396 26.9688 75.0104 25.4271 76.9688 24.2188C78.9479 22.9896 80.9167 22.375 82.875 22.375C83.8333 22.375 84.625 22.5938 85.25 23.0312C85.8958 23.4688 86.2188 24.2083 86.2188 25.25C86.2188 26.125 86.0833 27.0938 85.8125 28.1562C85.5417 29.1979 85.1042 30.1042 84.5 30.875C83.8958 31.625 83.0833 32 82.0625 32C81.6458 32 81.375 31.9375 81.25 31.8125C81.1458 31.6875 81.0938 31.4688 81.0938 31.1562L81.125 30.3125V29.2812C81.125 28.9062 81.0729 28.5938 80.9688 28.3438C80.8646 28.0729 80.6042 27.9375 80.1875 27.9375C79.5208 27.9375 78.7292 28.3021 77.8125 29.0312C76.8958 29.7396 75.9792 30.6875 75.0625 31.875C74.2083 33.0208 73.5 34.1667 72.9375 35.3125C72.375 36.4375 72.0938 37.3854 72.0938 38.1562C72.0938 38.8854 72.3438 39.4583 72.8438 39.875C73.3646 40.2917 74.0625 40.5 74.9375 40.5C76.3125 40.5 77.8229 40.1771 79.4688 39.5312C81.1146 38.8854 82.6771 38.1354 84.1562 37.2812C85.5938 36.4479 86.8542 35.6667 87.9375 34.9375C89.0417 34.2083 89.6979 33.7917 89.9062 33.6875C90.2812 33.5208 90.5938 33.4375 90.8438 33.4375C91.3646 33.4375 91.7188 33.625 91.9062 34C92.0938 34.375 92.1875 34.6979 92.1875 34.9688C92.1875 35.1562 92.1667 35.3854 92.125 35.6562C92.0833 35.9062 91.9271 36.1979 91.6562 36.5312C91.3646 36.8854 90.6042 37.5521 89.375 38.5312C88.1458 39.5104 86.7917 40.4896 85.3125 41.4688C83.5417 42.6562 81.5625 43.6875 79.375 44.5625C77.1875 45.4375 75.0938 45.875 73.0938 45.875Z" fill="#F6339A"/>
<path d="M43.3125 45.875C41.9583 45.875 40.7396 45.5521 39.6562 44.9062C38.5938 44.2604 38.0625 43.0417 38.0625 41.25C38.0625 41.1042 38.125 40.6875 38.25 40C38.3958 39.3125 38.6458 38.4375 39 37.375C39.4375 36.0625 40.125 34.3542 41.0625 32.25C42 30.1458 43.3229 27.5938 45.0312 24.5938C45.4688 23.8021 45.9688 23.2396 46.5312 22.9062C47.1146 22.5521 47.7396 22.375 48.4062 22.375C49.0729 22.375 49.6875 22.5417 50.25 22.875C50.8125 23.1875 51.0938 23.6458 51.0938 24.25C51.0938 24.4583 51.0625 24.6562 51 24.8438C50.8542 25.3229 50.4583 26.0625 49.8125 27.0625C49.1875 28.0625 48.4792 29.2396 47.6875 30.5938C46.9167 31.8646 46.2188 33.2292 45.5938 34.6875C44.9896 36.1458 44.6562 37.5208 44.5938 38.8125C44.5938 39.1875 44.6979 39.5312 44.9062 39.8438C45.1146 40.1562 45.4583 40.3125 45.9375 40.3125C47.2917 40.3125 48.5729 39.9479 49.7812 39.2188C51.0104 38.4688 52.1562 37.5312 53.2188 36.4062C54.2812 35.2604 55.2292 34.0521 56.0625 32.7812C56.8958 31.5104 57.5938 30.3438 58.1562 29.2812C58.6771 28.3438 59.1354 27.3438 59.5312 26.2812C59.9271 25.1979 60.3958 24.2708 60.9375 23.5C61.4792 22.7292 62.2083 22.3438 63.125 22.3438C63.875 22.3438 64.4688 22.5833 64.9062 23.0625C65.3438 23.5417 65.5625 24.1146 65.5625 24.7812C65.5625 25.3229 65.2604 26.1979 64.6562 27.4062C64.0729 28.5938 63.4167 29.8854 62.6875 31.2812C61.9167 32.7396 61.2396 34.2292 60.6562 35.75C60.0938 37.25 59.8125 38.5833 59.8125 39.75C59.8125 40.5 60.2708 40.875 61.1875 40.875C62.5833 40.875 64.3958 40.1562 66.625 38.7188C67.6667 38.0521 68.7083 37.2604 69.75 36.3438C70.8125 35.4271 71.75 34.4375 72.5625 33.375L72.875 37.625C71.4792 39.2292 69.7917 40.7188 67.8125 42.0938C65.8542 43.4479 63.9479 44.4688 62.0938 45.1562C60.1771 45.8854 58.5729 46.0521 57.2812 45.6562C55.9896 45.2604 55.3438 44.0938 55.3438 42.1562C55.3438 41.1771 55.5104 40.0625 55.8438 38.8125C55.1354 39.875 54.1875 40.9583 53 42.0625C51.8125 43.1458 50.4062 44.0521 48.7812 44.7812C47.1771 45.5104 45.3542 45.875 43.3125 45.875Z" fill="#F6339A"/>
<path d="M14.7188 46.0312C9.61458 46.0312 5.88542 45.3646 3.53125 44.0312C1.17708 42.6979 0 41.0312 0 39.0312C0 37.0938 0.677083 35.7292 2.03125 34.9375C3.38542 34.125 5.07292 33.7188 7.09375 33.7188C8.15625 33.7188 9.27083 33.9688 10.4375 34.4688C11.625 34.9479 12.7604 35.5625 13.8438 36.3125C14.9271 37.0417 15.8438 37.8021 16.5938 38.5938C17.5729 36.0729 18.8854 33.0521 20.5312 29.5312C21.3229 27.8438 22.1562 26.1146 23.0312 24.3438C23.9062 22.5521 24.7812 20.7917 25.6562 19.0625C26.5312 17.3333 27.3854 15.6667 28.2188 14.0625C29.0521 12.4583 29.8229 10.9896 30.5312 9.65625C31.9479 6.96875 33.0104 5.01042 33.7188 3.78125C34.3438 2.51042 35.1771 1.5625 36.2188 0.9375C37.2812 0.3125 38.2917 0 39.25 0C39.9167 0 40.4792 0.177083 40.9375 0.53125C41.3958 0.864583 41.625 1.36458 41.625 2.03125C41.625 2.59375 41.4896 3.15625 41.2188 3.71875C39.3229 7.76042 37.5312 11.5104 35.8438 14.9688C34.1562 18.4271 32.3542 21.9896 30.4375 25.6562C28.7292 28.9479 27.0833 31.9375 25.5 34.625C23.9375 37.2917 22.5833 39.3646 21.4375 40.8438C23.25 40.7188 24.9062 40.5521 26.4062 40.3438C27.9062 40.1354 29.3542 39.8958 30.75 39.625C32.1042 39.3542 33.5104 39.0521 34.9688 38.7188C36.4271 38.3854 37.9375 38.0625 39.5 37.75C39.6875 37.6667 39.9167 37.625 40.1875 37.625C40.8333 37.625 41.3438 37.8854 41.7188 38.4062C42.0938 38.9062 42.2812 39.4792 42.2812 40.125C42.2812 40.7083 41.4792 41.3438 39.875 42.0312C38.2917 42.7188 36.1667 43.3646 33.5 43.9688C30.9583 44.5521 28.0417 45.0417 24.75 45.4375C21.4792 45.8333 18.1354 46.0312 14.7188 46.0312ZM13.5938 41.0625C12.8854 40.6667 12.1042 40.2292 11.25 39.75C10.3958 39.2708 9.59375 38.8542 8.84375 38.5C8.09375 38.1458 7.5 37.9688 7.0625 37.9688C6.3125 37.9688 5.9375 38.1667 5.9375 38.5625C5.9375 39.2083 6.625 39.7812 8 40.2812C9.375 40.7604 11.2396 41.0208 13.5938 41.0625Z" fill="#F6339A"/>
</svg>
